<svg xmlns="http://www.w3.org/2000/svg" width="24" height="17" viewBox="0 0 24 17">
  <metadata><?xpacket begin="﻿" id="W5M0MpCehiHzreSzNTczkc9d"?>
<x:xmpmeta xmlns:x="adobe:ns:meta/" x:xmptk="Adobe XMP Core 5.6-c138 79.159824, 2016/09/14-01:09:01        ">
   <rdf:RDF xmlns:rdf="http://www.w3.org/1999/02/22-rdf-syntax-ns#">
      <rdf:Description rdf:about=""/>
   </rdf:RDF>
</x:xmpmeta>
                                                                                                    
                                                                                                    
                                                                                                    
                                                                                                    
                                                                                                    
                                                                                                    
                                                                                                    
                                                                                                    
                                                                                                    
                                                                                                    
                                                                                                    
                                                                                                    
                                                                                                    
                                                                                                    
                                                                                                    
                                                                                                    
                                                                                                    
                                                                                                    
                                                                                                    
                                                                                                    
                           
<?xpacket end="w"?></metadata>
<defs>
    <style>
      .cls-1 {
        fill: #fff;
        fill-rule: evenodd;
      }
    </style>
  </defs>
  <path class="cls-1" d="M1517,7435.5a1.024,1.024,0,0,0,.83.87l8.8,2.18,0.32,4.99a0.517,0.517,0,0,0,.41.43,0.628,0.628,0,0,0,.19.03,0.662,0.662,0,0,0,.45-0.17l3.11-2.83,4.41,2.51a1.33,1.33,0,0,0,.66.18,1.161,1.161,0,0,0,1.15-.78l3.66-15.32a0.463,0.463,0,0,0-.21-0.48,0.7,0.7,0,0,0-.6-0.07l-22.47,7.52A0.961,0.961,0,0,0,1517,7435.5Zm11.07,6.8-0.21-3.14,2.26,1.28Zm8.09,0.38-8.02-4.56,11.25-8.95Zm1.99-13.9-11.11,8.84-8.78-2.18Z" transform="translate(-1517 -7427)"/>
</svg>
